<svg width="133" height="44" viewBox="0 0 133 44" fill="none" xmlns="http://www.w3.org/2000/svg">
    <path fill-rule="evenodd" clip-rule="evenodd" d="M5.12794 0H127.448C129.231 0 129.877 0.18559 130.529 0.53458C131.174 0.875567 131.7 1.40235 132.041 2.04654C132.39 2.69812 132.576 3.34466 132.576 5.12794V38.8721C132.576 40.6553 132.39 41.3019 132.041 41.9535C131.7 42.5976 131.174 43.1244 130.529 43.4654C129.877 43.8144 129.231 44 127.448 44H5.12794C3.34466 44 2.69812 43.8144 2.04654 43.4654C1.40217 43.1245 0.875197 42.5977 0.534076 41.9535C0.186095 41.3019 0 40.6553 0 38.8721V5.12794C0 3.34466 0.18559 2.69812 0.53458 2.04654C0.875486 1.40217 1.40228 0.875197 2.04654 0.534076C2.69812 0.186599 3.34466 0 5.12794 0Z" fill="#F5F9FB"/>
    <path d="M30.3971 23.0242C30.3668 19.7114 33.1757 18.1 33.3043 18.0249C31.7134 15.7601 29.2472 15.4511 28.3813 15.4261C26.3097 15.2131 24.3009 16.6365 23.2458 16.6365C22.1699 16.6365 20.5457 15.4465 18.7941 15.482C16.5415 15.5157 14.4332 16.7889 13.2775 18.7669C10.8917 22.7996 12.6712 28.7259 14.957 31.9852C16.0998 33.5826 17.4359 35.3639 19.1852 35.3016C20.896 35.2335 21.535 34.2373 23.5996 34.2373C25.6457 34.2373 26.2456 35.3016 28.0292 35.2615C29.8652 35.2335 31.0215 33.6577 32.1248 32.0469C33.4458 30.2179 33.977 28.4151 33.998 28.3226C33.9561 28.3081 30.4331 26.9941 30.3971 23.0242ZM27.0277 13.2817C27.9483 12.1586 28.578 10.6299 28.4028 9.07849C27.0708 9.13668 25.4059 9.97814 24.4458 11.0768C23.5979 12.0451 22.8397 13.6326 23.0352 15.1252C24.5313 15.2341 26.0676 14.3879 27.0277 13.2817Z" fill="#113355"/>
    <path d="M47.0234 16.6426V10.9059H48.7176C49.2246 10.9059 49.6738 11.0188 50.0651 11.2447C50.4591 11.4706 50.7638 11.7911 50.9792 12.2061C51.1946 12.6211 51.3023 13.0965 51.3023 13.6324V13.92C51.3023 14.4637 51.1933 14.9418 50.9753 15.3542C50.7599 15.7666 50.4512 16.0844 50.0494 16.3077C49.6501 16.5309 49.1918 16.6426 48.6743 16.6426H47.0234ZM48.0203 11.7097V15.8467H48.6704C49.1931 15.8467 49.5936 15.6838 49.8721 15.3581C50.1531 15.0298 50.2963 14.5596 50.3015 13.9476V13.6284C50.3015 13.0059 50.1663 12.5305 49.8957 12.2022C49.6252 11.8738 49.2325 11.7097 48.7176 11.7097H48.0203Z" fill="#113355"/>
    <path d="M52.0233 14.4716C52.0233 14.054 52.106 13.6784 52.2715 13.3448C52.437 13.0086 52.6695 12.7511 52.9689 12.5725C53.2684 12.3913 53.6124 12.3007 54.0012 12.3007C54.5764 12.3007 55.0427 12.4858 55.3999 12.8562C55.7598 13.2266 55.9541 13.7178 55.983 14.3298L55.987 14.5543C55.987 14.9746 55.9055 15.3502 55.7427 15.6812C55.5825 16.0122 55.3513 16.2683 55.0492 16.4495C54.7498 16.6307 54.4031 16.7214 54.0091 16.7214C53.4076 16.7214 52.9256 16.5217 52.5631 16.1225C52.2032 15.7206 52.0233 15.1861 52.0233 14.5189V14.4716ZM52.9807 14.5543C52.9807 14.993 53.0714 15.3371 53.2526 15.5866C53.4338 15.8335 53.686 15.957 54.0091 15.957C54.3322 15.957 54.583 15.8309 54.7616 15.5787C54.9429 15.3266 55.0335 14.9575 55.0335 14.4716C55.0335 14.0408 54.9402 13.6994 54.7537 13.4472C54.5699 13.195 54.319 13.069 54.0012 13.069C53.6886 13.069 53.4404 13.1937 53.2565 13.4433C53.0727 13.6902 52.9807 14.0605 52.9807 14.5543Z" fill="#113355"/>
    <path d="M60.5416 15.3226L61.2193 12.3795H62.1531L60.9908 16.6426H60.2028L59.2887 13.7151L58.3904 16.6426H57.6024L56.4361 12.3795H57.3699L58.0594 15.2911L58.9341 12.3795H59.6551L60.5416 15.3226Z" fill="#113355"/>
    <path d="M63.6818 12.3795L63.7094 12.872C64.0246 12.4911 64.4383 12.3007 64.9505 12.3007C65.8383 12.3007 66.2901 12.8089 66.3058 13.8254V16.6426H65.3484V13.8806C65.3484 13.6101 65.2893 13.4104 65.1711 13.2817C65.0555 13.1504 64.8651 13.0847 64.5998 13.0847C64.2137 13.0847 63.9261 13.2594 63.737 13.6087V16.6426H62.7795V12.3795H63.6818Z" fill="#113355"/>
    <path d="M68.3034 16.6426H67.346V10.5907H68.3034V16.6426Z" fill="#113355"/>
    <path d="M69.1702 14.4716C69.1702 14.054 69.253 13.6784 69.4185 13.3448C69.5839 13.0086 69.8164 12.7511 70.1158 12.5725C70.4153 12.3913 70.7594 12.3007 71.1481 12.3007C71.7234 12.3007 72.1896 12.4858 72.5468 12.8562C72.9067 13.2266 73.101 13.7178 73.1299 14.3298L73.1339 14.5543C73.1339 14.9746 73.0525 15.3502 72.8896 15.6812C72.7294 16.0122 72.4982 16.2683 72.1962 16.4495C71.8967 16.6307 71.55 16.7214 71.156 16.7214C70.5545 16.7214 70.0725 16.5217 69.71 16.1225C69.3502 15.7206 69.1702 15.1861 69.1702 14.5189V14.4716ZM70.1277 14.5543C70.1277 14.993 70.2183 15.3371 70.3995 15.5866C70.5808 15.8335 70.8329 15.957 71.156 15.957C71.4791 15.957 71.7299 15.8309 71.9085 15.5787C72.0898 15.3266 72.1804 14.9575 72.1804 14.4716C72.1804 14.0408 72.0872 13.6994 71.9007 13.4472C71.7168 13.195 71.4659 13.069 71.1481 13.069C70.8355 13.069 70.5873 13.1937 70.4035 13.4433C70.2196 13.6902 70.1277 14.0605 70.1277 14.5543Z" fill="#113355"/>
    <path d="M76.4908 16.6426C76.4487 16.5611 76.412 16.4285 76.3804 16.2446C76.0758 16.5624 75.7028 16.7214 75.2615 16.7214C74.8333 16.7214 74.484 16.5992 74.2134 16.3549C73.9429 16.1107 73.8076 15.8086 73.8076 15.4487C73.8076 14.9943 73.9757 14.6463 74.3119 14.4046C74.6508 14.1603 75.1341 14.0382 75.7619 14.0382H76.3489V13.7585C76.3489 13.5378 76.2872 13.3618 76.1637 13.2305C76.0403 13.0965 75.8525 13.0296 75.6003 13.0296C75.3823 13.0296 75.2037 13.0847 75.0645 13.195C74.9253 13.3027 74.8557 13.4406 74.8557 13.6087H73.8982C73.8982 13.375 73.9757 13.157 74.1307 12.9547C74.2857 12.7498 74.4958 12.5896 74.7611 12.474C75.029 12.3584 75.3272 12.3007 75.6555 12.3007C76.1546 12.3007 76.5525 12.4267 76.8493 12.6789C77.1461 12.9284 77.2985 13.2804 77.3064 13.7348V15.6575C77.3064 16.041 77.3602 16.3471 77.4679 16.5756V16.6426H76.4908ZM75.4388 15.9531C75.6279 15.9531 75.8052 15.9071 75.9707 15.8152C76.1388 15.7232 76.2649 15.5998 76.3489 15.4448V14.641H75.8328C75.4782 14.641 75.2116 14.7028 75.033 14.8262C74.8544 14.9497 74.765 15.1243 74.765 15.3502C74.765 15.5341 74.8255 15.6812 74.9463 15.7915C75.0697 15.8992 75.2339 15.9531 75.4388 15.9531Z" fill="#113355"/>
    <path d="M78.1298 14.4795C78.1298 13.8228 78.2822 13.2962 78.5869 12.8995C78.8915 12.5003 79.3 12.3007 79.8122 12.3007C80.264 12.3007 80.6291 12.4583 80.9075 12.7735V10.5907H81.8649V16.6426H80.9981L80.9509 16.2013C80.6646 16.548 80.2824 16.7214 79.8043 16.7214C79.3052 16.7214 78.9007 16.5204 78.5908 16.1185C78.2835 15.7167 78.1298 15.1703 78.1298 14.4795ZM79.0872 14.5622C79.0872 14.9956 79.17 15.3345 79.3355 15.5787C79.5036 15.8204 79.7413 15.9412 80.0486 15.9412C80.44 15.9412 80.7263 15.7666 80.9075 15.4172V13.5969C80.7315 13.2555 80.4479 13.0847 80.0565 13.0847C79.7465 13.0847 79.5075 13.2082 79.3394 13.4551C79.1713 13.6994 79.0872 14.0684 79.0872 14.5622Z" fill="#113355"/>
    <path d="M84.6939 14.4716C84.6939 14.054 84.7766 13.6784 84.9421 13.3448C85.1076 13.0086 85.34 12.7511 85.6395 12.5725C85.9389 12.3913 86.283 12.3007 86.6718 12.3007C87.247 12.3007 87.7132 12.4858 88.0705 12.8562C88.4303 13.2266 88.6247 13.7178 88.6536 14.3298L88.6575 14.5543C88.6575 14.9746 88.5761 15.3502 88.4132 15.6812C88.253 16.0122 88.0219 16.2683 87.7198 16.4495C87.4204 16.6307 87.0736 16.7214 86.6796 16.7214C86.0781 16.7214 85.5961 16.5217 85.2337 16.1225C84.8738 15.7206 84.6939 15.1861 84.6939 14.5189V14.4716ZM85.6513 14.5543C85.6513 14.993 85.7419 15.3371 85.9232 15.5866C86.1044 15.8335 86.3566 15.957 86.6796 15.957C87.0027 15.957 87.2536 15.8309 87.4322 15.5787C87.6134 15.3266 87.704 14.9575 87.704 14.4716C87.704 14.0408 87.6108 13.6994 87.4243 13.4472C87.2404 13.195 86.9896 13.069 86.6718 13.069C86.3592 13.069 86.111 13.1937 85.9271 13.4433C85.7432 13.6902 85.6513 14.0605 85.6513 14.5543Z" fill="#113355"/>
    <path d="M90.3557 12.3795L90.3832 12.872C90.6984 12.4911 91.1121 12.3007 91.6243 12.3007C92.5122 12.3007 92.9639 12.8089 92.9797 13.8254V16.6426H92.0223V13.8806C92.0223 13.6101 91.9632 13.4104 91.845 13.2817C91.7294 13.1504 91.539 13.0847 91.2737 13.0847C90.8876 13.0847 90.5999 13.2594 90.4108 13.6087V16.6426H89.4534V12.3795H90.3557Z" fill="#113355"/>
    <path d="M97.1679 11.3432V12.3795H97.9205V13.0887H97.1679V15.4684C97.1679 15.6313 97.1995 15.7495 97.2625 15.823C97.3282 15.894 97.4437 15.9294 97.6092 15.9294C97.7195 15.9294 97.8312 15.9163 97.9441 15.89V16.6307C97.7261 16.6911 97.516 16.7214 97.3137 16.7214C96.5783 16.7214 96.2105 16.3155 96.2105 15.5039V13.0887H95.5092V12.3795H96.2105V11.3432H97.1679Z" fill="#113355"/>
    <path d="M99.5989 12.8444C99.9115 12.4819 100.307 12.3007 100.785 12.3007C101.694 12.3007 102.155 12.8194 102.168 13.857V16.6426H101.21V13.8924C101.21 13.5982 101.146 13.3907 101.017 13.2699C100.891 13.1465 100.705 13.0847 100.458 13.0847C100.074 13.0847 99.788 13.2555 99.5989 13.5969V16.6426H98.6415V10.5907H99.5989V12.8444Z" fill="#113355"/>
    <path d="M105.016 16.7214C104.41 16.7214 103.917 16.5309 103.539 16.1501C103.163 15.7666 102.976 15.257 102.976 14.6213V14.5031C102.976 14.0776 103.057 13.6981 103.22 13.3645C103.385 13.0283 103.616 12.7669 103.913 12.5804C104.21 12.3939 104.541 12.3007 104.906 12.3007C105.487 12.3007 105.934 12.4858 106.25 12.8562C106.567 13.2266 106.726 13.7506 106.726 14.4283V14.8144H103.941C103.97 15.1664 104.087 15.4448 104.291 15.6497C104.499 15.8546 104.759 15.957 105.072 15.957C105.51 15.957 105.867 15.7797 106.143 15.4251L106.659 15.9176C106.489 16.1724 106.26 16.3707 105.974 16.5125C105.69 16.6517 105.371 16.7214 105.016 16.7214ZM104.902 13.069C104.64 13.069 104.427 13.1609 104.264 13.3448C104.104 13.5286 104.001 13.7847 103.957 14.1131H105.781V14.0421C105.76 13.7217 105.674 13.48 105.525 13.3172C105.375 13.1517 105.167 13.069 104.902 13.069Z" fill="#113355"/>
    <path d="M53.5554 31.2844H49.3889L48.5171 33.7887H46.5742L50.6374 23.0325H52.3143L56.3848 33.7887H54.4345L53.5554 31.2844ZM49.9134 29.7773H53.0309L51.4721 25.3153L49.9134 29.7773Z" fill="#113355"/>
    <path d="M64.0826 29.8734C64.0826 31.1095 63.8019 32.097 63.2405 32.8358C62.679 33.5696 61.9255 33.9365 60.9799 33.9365C60.1032 33.9365 59.4014 33.6484 58.8744 33.0722V36.8619H57.0793V25.7954H58.7341L58.808 26.6081C59.3349 25.9678 60.0515 25.6477 60.9577 25.6477C61.9329 25.6477 62.6962 26.0121 63.2478 26.741C63.8044 27.465 64.0826 28.4722 64.0826 29.7625V29.8734ZM62.2949 29.7182C62.2949 28.9204 62.1348 28.2875 61.8147 27.8196C61.4995 27.3518 61.0464 27.1178 60.4554 27.1178C59.7215 27.1178 59.1946 27.4207 58.8744 28.0265V31.5725C59.1995 32.193 59.7314 32.5033 60.4701 32.5033C61.0414 32.5033 61.4872 32.2743 61.8073 31.8163C62.1323 31.3533 62.2949 30.654 62.2949 29.7182Z" fill="#113355"/>
    <path d="M72.6078 29.8734C72.6078 31.1095 72.3271 32.097 71.7657 32.8358C71.2042 33.5696 70.4507 33.9365 69.5051 33.9365C68.6284 33.9365 67.9266 33.6484 67.3996 33.0722V36.8619H65.6045V25.7954H67.2593L67.3331 26.6081C67.8601 25.9678 68.5767 25.6477 69.4829 25.6477C70.4581 25.6477 71.2214 26.0121 71.773 26.741C72.3296 27.465 72.6078 28.4722 72.6078 29.7625V29.8734ZM70.8201 29.7182C70.8201 28.9204 70.66 28.2875 70.3399 27.8196C70.0247 27.3518 69.5716 27.1178 68.9806 27.1178C68.2467 27.1178 67.7198 27.4207 67.3996 28.0265V31.5725C67.7247 32.193 68.2566 32.5033 68.9953 32.5033C69.5666 32.5033 70.0124 32.2743 70.3325 31.8163C70.6575 31.3533 70.8201 30.654 70.8201 29.7182Z" fill="#113355"/>
    <path d="M83.6965 31.0184C83.6965 30.5456 83.529 30.1812 83.1941 29.9251C82.8642 29.669 82.2658 29.4104 81.399 29.1494C80.5322 28.8884 79.8427 28.5978 79.3305 28.2777C78.3504 27.662 77.8604 26.8592 77.8604 25.8693C77.8604 25.0025 78.2125 24.2884 78.9168 23.7269C79.626 23.1655 80.5445 22.8848 81.6723 22.8848C82.4209 22.8848 83.0883 23.0227 83.6743 23.2985C84.2604 23.5743 84.7209 23.9683 85.0558 24.4805C85.3907 24.9877 85.5582 25.5517 85.5582 26.1722H83.6965C83.6965 25.6108 83.5192 25.1724 83.1646 24.8572C82.8149 24.5371 82.3126 24.377 81.6575 24.377C81.0468 24.377 80.5716 24.5076 80.2318 24.7686C79.8969 25.0296 79.7294 25.3941 79.7294 25.8619C79.7294 26.2559 79.9116 26.5859 80.2761 26.8519C80.6405 27.1129 81.2414 27.369 82.0786 27.6202C82.9159 27.8664 83.5882 28.1496 84.0954 28.4697C84.6027 28.7849 84.9745 29.1494 85.2109 29.5631C85.4473 29.9719 85.5655 30.452 85.5655 31.0036C85.5655 31.9 85.2208 32.6141 84.5313 33.146C83.8467 33.673 82.9159 33.9365 81.7388 33.9365C80.9607 33.9365 80.2441 33.7937 79.589 33.508C78.9389 33.2174 78.4317 32.8185 78.0672 32.3112C77.7077 31.804 77.5279 31.213 77.5279 30.5382H79.397C79.397 31.1489 79.5989 31.6217 80.0027 31.9566C80.4066 32.2915 80.9853 32.459 81.7388 32.459C82.3889 32.459 82.8765 32.3285 83.2015 32.0674C83.5315 31.8015 83.6965 31.4518 83.6965 31.0184Z" fill="#113355"/>
    <path d="M89.2815 23.8525V25.7954H90.6925V27.1252H89.2815V31.5873C89.2815 31.8926 89.3406 32.1142 89.4588 32.2521C89.5819 32.3851 89.7986 32.4516 90.1089 32.4516C90.3157 32.4516 90.525 32.427 90.7368 32.3777V33.7666C90.328 33.8799 89.934 33.9365 89.5548 33.9365C88.1758 33.9365 87.4863 33.1756 87.4863 31.6537V27.1252H86.1713V25.7954H87.4863V23.8525H89.2815Z" fill="#113355"/>
    <path d="M91.5125 29.7182C91.5125 28.9351 91.6676 28.2309 91.9779 27.6054C92.2882 26.975 92.724 26.4923 93.2855 26.1574C93.847 25.8176 94.4921 25.6477 95.221 25.6477C96.2996 25.6477 97.1738 25.9949 97.8436 26.6893C98.5183 27.3838 98.8828 28.3047 98.937 29.4523L98.9443 29.8734C98.9443 30.6614 98.7917 31.3656 98.4863 31.9862C98.1859 32.6067 97.7525 33.0869 97.1861 33.4268C96.6247 33.7666 95.9746 33.9365 95.2358 33.9365C94.108 33.9365 93.2042 33.5622 92.5246 32.8136C91.8499 32.0601 91.5125 31.0578 91.5125 29.8069V29.7182ZM93.3077 29.8734C93.3077 30.6958 93.4776 31.341 93.8174 31.8089C94.1572 32.2718 94.63 32.5033 95.2358 32.5033C95.8416 32.5033 96.3119 32.2669 96.6468 31.7941C96.9866 31.3213 97.1566 30.6293 97.1566 29.7182C97.1566 28.9105 96.9817 28.2703 96.632 27.7975C96.2873 27.3247 95.817 27.0883 95.221 27.0883C94.635 27.0883 94.1695 27.3222 93.8248 27.7901C93.48 28.253 93.3077 28.9475 93.3077 29.8734Z" fill="#113355"/>
    <path d="M104.648 27.4355C104.411 27.3961 104.167 27.3764 103.916 27.3764C103.094 27.3764 102.54 27.6916 102.254 28.322V33.7887H100.459V25.7954H102.173L102.217 26.6893C102.65 25.9949 103.251 25.6477 104.02 25.6477C104.276 25.6477 104.487 25.6822 104.655 25.7511L104.648 27.4355Z" fill="#113355"/>
    <path d="M109.154 33.9365C108.016 33.9365 107.093 33.5794 106.384 32.8653C105.679 32.1462 105.327 31.1908 105.327 29.9989V29.7773C105.327 28.9795 105.48 28.2678 105.785 27.6423C106.095 27.0119 106.529 26.5219 107.085 26.1722C107.642 25.8225 108.262 25.6477 108.947 25.6477C110.035 25.6477 110.875 25.9949 111.466 26.6893C112.062 27.3838 112.36 28.3663 112.36 29.637V30.3609H107.137C107.191 31.0209 107.41 31.5429 107.795 31.9271C108.184 32.3112 108.671 32.5033 109.257 32.5033C110.08 32.5033 110.75 32.1709 111.267 31.506L112.234 32.4294C111.914 32.9072 111.486 33.279 110.949 33.545C110.417 33.806 109.819 33.9365 109.154 33.9365ZM108.94 27.0883C108.447 27.0883 108.048 27.2606 107.743 27.6054C107.442 27.9501 107.25 28.4303 107.167 29.046H110.587V28.913C110.548 28.3121 110.388 27.859 110.107 27.5537C109.826 27.2434 109.437 27.0883 108.94 27.0883Z" fill="#113355"/>
</svg>