<svg width="133" height="44" viewBox="0 0 133 44" fill="none" xmlns="http://www.w3.org/2000/svg">
    <path fill-rule="evenodd" clip-rule="evenodd" d="M5.12794 0H127.448C129.231 0 129.877 0.18559 130.529 0.53458C131.174 0.875567 131.7 1.40235 132.041 2.04654C132.39 2.69812 132.576 3.34466 132.576 5.12794V38.8721C132.576 40.6553 132.39 41.3019 132.041 41.9535C131.7 42.5976 131.174 43.1244 130.529 43.4654C129.877 43.8144 129.231 44 127.448 44H5.12794C3.34466 44 2.69812 43.8144 2.04654 43.4654C1.40217 43.1245 0.875197 42.5977 0.534076 41.9535C0.186599 41.3019 0 40.6553 0 38.8721V5.12794C0 3.34466 0.18559 2.69812 0.53458 2.04654C0.875486 1.40217 1.40228 0.875197 2.04654 0.534076C2.69812 0.186599 3.34466 0 5.12794 0Z" fill="#F5F9FB"/>
    <path d="M13.7323 34.7626C14.3361 34.8684 15.0496 34.7382 15.8124 34.3331L29.1881 27.2296L25.2972 23.4092L13.7323 34.7626ZM12.6279 10.3951C12.2965 10.8732 12.1055 11.5315 12.1055 12.3418V32.0768C12.1055 32.8659 12.2862 33.5107 12.601 33.9851L24.3069 22.176L12.6279 10.3951ZM30.0015 17.155L16.5854 10.0483C15.8399 9.65342 15.1412 9.51817 14.5457 9.60855L26.1158 20.9696L30.0015 17.155ZM30.9963 26.6642L34.8821 24.6451C37.0525 23.5188 37.5555 21.1729 35.3838 20.0486L31.4769 18.025L26.7478 22.5849L30.9963 26.6642Z" fill="#113355"/>
    <path d="M53.5899 15.8977C53.3824 16.1682 53.0947 16.3731 52.727 16.5123C52.3593 16.6515 51.9416 16.7211 51.4741 16.7211C50.9934 16.7211 50.5679 16.6121 50.1975 16.3941C49.8272 16.1761 49.5409 15.8648 49.3386 15.4603C49.139 15.0532 49.0352 14.5791 49.0273 14.038V13.5888C49.0273 12.722 49.2349 12.0456 49.6499 11.5597C50.0649 11.0711 50.6441 10.8269 51.3874 10.8269C52.0257 10.8269 52.5326 10.9845 52.9083 11.2997C53.2839 11.6149 53.5098 12.0693 53.5859 12.6629H52.6088C52.4985 11.9721 52.0979 11.6267 51.4071 11.6267C50.9606 11.6267 50.6204 11.7882 50.3866 12.1113C50.1555 12.4318 50.036 12.9033 50.0281 13.5258V13.9671C50.0281 14.587 50.1581 15.0689 50.4182 15.413C50.6808 15.7545 51.0446 15.9252 51.5095 15.9252C52.0191 15.9252 52.3816 15.8097 52.597 15.5785V14.4556H51.415V13.6991H53.5899V15.8977Z" fill="#113355"/>
    <path d="M56.47 16.7211C55.8633 16.7211 55.3708 16.5307 54.9925 16.1498C54.6169 15.7663 54.4291 15.2568 54.4291 14.6211V14.5029C54.4291 14.0774 54.5105 13.6978 54.6734 13.3642C54.8389 13.028 55.07 12.7667 55.3668 12.5802C55.6636 12.3937 55.9946 12.3004 56.3597 12.3004C56.9402 12.3004 57.388 12.4856 57.7032 12.856C58.0211 13.2263 58.18 13.7504 58.18 14.428V14.8142H55.3944C55.4233 15.1661 55.5402 15.4446 55.7451 15.6494C55.9526 15.8543 56.2126 15.9568 56.5252 15.9568C56.9638 15.9568 57.3211 15.7795 57.5969 15.4249L58.113 15.9174C57.9423 16.1721 57.7137 16.3705 57.4274 16.5123C57.1438 16.6515 56.8246 16.7211 56.47 16.7211ZM56.3558 13.0687C56.0931 13.0687 55.8803 13.1607 55.7175 13.3445C55.5573 13.5284 55.4548 13.7845 55.4102 14.1128H57.2344V14.0419C57.2134 13.7215 57.128 13.4798 56.9783 13.317C56.8286 13.1515 56.6211 13.0687 56.3558 13.0687Z" fill="#113355"/>
    <path d="M60.1263 11.343V12.3792H60.8789V13.0884H60.1263V15.4682C60.1263 15.6311 60.1579 15.7493 60.2209 15.8228C60.2866 15.8937 60.4022 15.9292 60.5676 15.9292C60.678 15.9292 60.7896 15.916 60.9025 15.8898V16.6305C60.6845 16.6909 60.4744 16.7211 60.2721 16.7211C59.5367 16.7211 59.1689 16.3153 59.1689 15.5037V13.0884H58.4676V12.3792H59.1689V11.343H60.1263Z" fill="#113355"/>
    <path d="M64.6416 16.6423H63.6842V12.3792H64.6416V16.6423ZM63.6251 11.2721C63.6251 11.125 63.671 11.0029 63.763 10.9057C63.8575 10.8085 63.9915 10.7599 64.1649 10.7599C64.3382 10.7599 64.4722 10.8085 64.5667 10.9057C64.6613 11.0029 64.7086 11.125 64.7086 11.2721C64.7086 11.4166 64.6613 11.5374 64.5667 11.6346C64.4722 11.7291 64.3382 11.7764 64.1649 11.7764C63.9915 11.7764 63.8575 11.7291 63.763 11.6346C63.671 11.5374 63.6251 11.4166 63.6251 11.2721Z" fill="#113355"/>
    <path d="M66.8874 11.343V12.3792H67.6399V13.0884H66.8874V15.4682C66.8874 15.6311 66.9189 15.7493 66.982 15.8228C67.0476 15.8937 67.1632 15.9292 67.3287 15.9292C67.439 15.9292 67.5506 15.916 67.6636 15.8898V16.6305C67.4456 16.6909 67.2354 16.7211 67.0332 16.7211C66.2977 16.7211 65.93 16.3153 65.93 15.5037V13.0884H65.2287V12.3792H65.93V11.343H66.8874Z" fill="#113355"/>
    <path d="M70.2049 14.4714C70.2049 14.0537 70.2876 13.6781 70.4531 13.3445C70.6186 13.0083 70.8511 12.7509 71.1505 12.5723C71.4499 12.3911 71.794 12.3004 72.1828 12.3004C72.758 12.3004 73.2243 12.4856 73.5815 12.856C73.9413 13.2263 74.1357 13.7175 74.1646 14.3295L74.1685 14.5541C74.1685 14.9744 74.0871 15.35 73.9243 15.681C73.764 16.0119 73.5329 16.268 73.2308 16.4493C72.9314 16.6305 72.5847 16.7211 72.1907 16.7211C71.5891 16.7211 71.1072 16.5215 70.7447 16.1222C70.3848 15.7204 70.2049 15.1858 70.2049 14.5187V14.4714ZM71.1623 14.5541C71.1623 14.9928 71.2529 15.3369 71.4342 15.5864C71.6154 15.8333 71.8676 15.9568 72.1907 15.9568C72.5137 15.9568 72.7646 15.8307 72.9432 15.5785C73.1244 15.3264 73.2151 14.9573 73.2151 14.4714C73.2151 14.0406 73.1218 13.6991 72.9353 13.447C72.7515 13.1948 72.5006 13.0687 72.1828 13.0687C71.8702 13.0687 71.622 13.1935 71.4381 13.443C71.2542 13.6899 71.1623 14.0603 71.1623 14.5541Z" fill="#113355"/>
    <path d="M75.8667 12.3792L75.8943 12.8717C76.2095 12.4909 76.6232 12.3004 77.1354 12.3004C78.0232 12.3004 78.475 12.8087 78.4907 13.8252V16.6423H77.5333V13.8804C77.5333 13.6098 77.4742 13.4102 77.356 13.2815C77.2404 13.1502 77.05 13.0845 76.7847 13.0845C76.3986 13.0845 76.111 13.2592 75.9218 13.6085V16.6423H74.9644V12.3792H75.8667Z" fill="#113355"/>
    <path d="M51.3769 29.7932V33.7899H49.5078V23.0336H53.6227C54.8244 23.0336 55.7774 23.3464 56.4816 23.9718C57.1908 24.5973 57.5454 25.4247 57.5454 26.454C57.5454 27.508 57.1982 28.328 56.5038 28.9141C55.8143 29.5002 54.8465 29.7932 53.6005 29.7932H51.3769ZM51.3769 28.2935H53.6227C54.2875 28.2935 54.7948 28.1384 55.1445 27.8281C55.4942 27.5129 55.669 27.0598 55.669 26.4688C55.669 25.8877 55.4917 25.4247 55.1371 25.08C54.7825 24.7303 54.2949 24.5505 53.6744 24.5407H51.3769V28.2935Z" fill="#113355"/>
    <path d="M60.9215 33.7899H59.1264V22.4426H60.9215V33.7899Z" fill="#113355"/>
    <path d="M67.6589 33.7899C67.5801 33.6372 67.5112 33.3885 67.4521 33.0437C66.8808 33.6396 66.1814 33.9376 65.354 33.9376C64.5513 33.9376 63.8962 33.7086 63.389 33.2506C62.8817 32.7925 62.628 32.2262 62.628 31.5514C62.628 30.6994 62.9432 30.0468 63.5736 29.5937C64.209 29.1357 65.1152 28.9067 66.2923 28.9067H67.393V28.3822C67.393 27.9685 67.2773 27.6385 67.0458 27.3923C66.8143 27.1411 66.4622 27.0155 65.9894 27.0155C65.5806 27.0155 65.2457 27.1189 64.9847 27.3258C64.7236 27.5277 64.5931 27.7863 64.5931 28.1015H62.798C62.798 27.6631 62.9432 27.2544 63.2338 26.8751C63.5244 26.491 63.9184 26.1906 64.4158 25.9739C64.9182 25.7572 65.4772 25.6488 66.0928 25.6488C67.0285 25.6488 67.7747 25.8852 68.3312 26.358C68.8877 26.8259 69.1734 27.4858 69.1882 28.3379V31.943C69.1882 32.662 69.2891 33.2358 69.491 33.6643V33.7899H67.6589ZM65.6865 32.497C66.0411 32.497 66.3735 32.4108 66.6838 32.2385C66.999 32.0661 67.2354 31.8346 67.393 31.544V30.037H66.4252C65.7603 30.037 65.2605 30.1527 64.9256 30.3842C64.5907 30.6157 64.4232 30.9432 64.4232 31.3667C64.4232 31.7115 64.5365 31.9873 64.763 32.1941C64.9945 32.3961 65.3023 32.497 65.6865 32.497Z" fill="#113355"/>
    <path d="M73.7463 31.219L75.3715 25.7966H77.2849L74.1082 35.0014C73.6207 36.3459 72.7933 37.0182 71.626 37.0182C71.365 37.0182 71.0769 36.9739 70.7617 36.8852V35.4964L71.1015 35.5185C71.5546 35.5185 71.8945 35.4348 72.121 35.2674C72.3525 35.1048 72.5347 34.829 72.6677 34.44L72.9262 33.7529L70.119 25.7966H72.0545L73.7463 31.219Z" fill="#113355"/>
    <path d="M87.886 31.0195C87.886 30.5467 87.7185 30.1823 87.3836 29.9262C87.0536 29.6701 86.4552 29.4115 85.5884 29.1505C84.7216 28.8895 84.0321 28.5989 83.5199 28.2788C82.5399 27.6631 82.0498 26.8604 82.0498 25.8704C82.0498 25.0036 82.402 24.2895 83.1062 23.7281C83.8154 23.1666 84.734 22.8859 85.8618 22.8859C86.6104 22.8859 87.2777 23.0238 87.8638 23.2996C88.4499 23.5754 88.9104 23.9694 89.2453 24.4816C89.5802 24.9889 89.7476 25.5528 89.7476 26.1733H87.886C87.886 25.6119 87.7087 25.1735 87.3541 24.8583C87.0044 24.5382 86.502 24.3782 85.847 24.3782C85.2363 24.3782 84.761 24.5087 84.4212 24.7697C84.0863 25.0307 83.9189 25.3952 83.9189 25.863C83.9189 26.257 84.1011 26.587 84.4655 26.853C84.83 27.114 85.4308 27.3701 86.2681 27.6213C87.1054 27.8675 87.7776 28.1507 88.2849 28.4708C88.7922 28.786 89.164 29.1505 89.4004 29.5642C89.6368 29.973 89.755 30.4532 89.755 31.0048C89.755 31.9011 89.4103 32.6152 88.7208 33.1471C88.0362 33.6741 87.1054 33.9376 85.9283 33.9376C85.1501 33.9376 84.4335 33.7948 83.7785 33.5091C83.1284 33.2186 82.6211 32.8196 82.2567 32.3123C81.8971 31.8051 81.7174 31.2141 81.7174 30.5393H83.5864C83.5864 31.15 83.7884 31.6228 84.1922 31.9577C84.5961 32.2926 85.1747 32.4601 85.9283 32.4601C86.5784 32.4601 87.0659 32.3296 87.391 32.0686C87.721 31.8026 87.886 31.4529 87.886 31.0195Z" fill="#113355"/>
    <path d="M93.4709 23.8536V25.7966H94.8819V27.1263H93.4709V31.5884C93.4709 31.8937 93.53 32.1153 93.6482 32.2532C93.7714 32.3862 93.9881 32.4527 94.2983 32.4527C94.5052 32.4527 94.7145 32.4281 94.9263 32.3788V33.7677C94.5175 33.881 94.1235 33.9376 93.7443 33.9376C92.3653 33.9376 91.6758 33.1767 91.6758 31.6549V27.1263H90.3608V25.7966H91.6758V23.8536H93.4709Z" fill="#113355"/>
    <path d="M95.702 29.7193C95.702 28.9363 95.8571 28.232 96.1674 27.6065C96.4776 26.9761 96.9135 26.4934 97.475 26.1585C98.0364 25.8187 98.6816 25.6488 99.4105 25.6488C100.489 25.6488 101.363 25.996 102.033 26.6904C102.708 27.3849 103.072 28.3059 103.126 29.4534L103.134 29.8745C103.134 30.6625 102.981 31.3667 102.676 31.9873C102.375 32.6079 101.942 33.088 101.376 33.4279C100.814 33.7677 100.164 33.9376 99.4253 33.9376C98.2974 33.9376 97.3937 33.5633 96.714 32.8147C96.0393 32.0612 95.702 31.0589 95.702 29.808V29.7193ZM97.4971 29.8745C97.4971 30.6969 97.667 31.3421 98.0069 31.81C98.3467 32.2729 98.8195 32.5044 99.4253 32.5044C100.031 32.5044 100.501 32.268 100.836 31.7952C101.176 31.3224 101.346 30.6305 101.346 29.7193C101.346 28.9116 101.171 28.2714 100.822 27.7986C100.477 27.3258 100.006 27.0894 99.4105 27.0894C98.8244 27.0894 98.359 27.3233 98.0142 27.7912C97.6695 28.2541 97.4971 28.9486 97.4971 29.8745Z" fill="#113355"/>
    <path d="M108.837 27.4366C108.601 27.3972 108.357 27.3775 108.106 27.3775C107.283 27.3775 106.729 27.6927 106.443 28.3231V33.7899H104.648V25.7966H106.362L106.406 26.6904C106.84 25.996 107.441 25.6488 108.209 25.6488C108.465 25.6488 108.677 25.6833 108.844 25.7522L108.837 27.4366Z" fill="#113355"/>
    <path d="M113.343 33.9376C112.206 33.9376 111.282 33.5805 110.573 32.8664C109.869 32.1474 109.517 31.1919 109.517 30.0001V29.7784C109.517 28.9806 109.669 28.2689 109.975 27.6434C110.285 27.013 110.718 26.523 111.275 26.1733C111.831 25.8236 112.452 25.6488 113.136 25.6488C114.225 25.6488 115.065 25.996 115.656 26.6904C116.252 27.3849 116.55 28.3674 116.55 29.6381V30.362H111.327C111.381 31.022 111.6 31.544 111.984 31.9282C112.373 32.3123 112.861 32.5044 113.447 32.5044C114.269 32.5044 114.939 32.172 115.456 31.5071L116.424 32.4305C116.104 32.9083 115.675 33.2801 115.139 33.5461C114.607 33.8071 114.008 33.9376 113.343 33.9376ZM113.129 27.0894C112.637 27.0894 112.238 27.2618 111.932 27.6065C111.632 27.9513 111.44 28.4314 111.356 29.0471H114.777V28.9141C114.737 28.3132 114.577 27.8601 114.296 27.5548C114.016 27.2445 113.627 27.0894 113.129 27.0894Z" fill="#113355"/>
</svg>